<mxfile host="app.diagrams.net" modified="2024-06-10T14:49:59.429Z" agent="Mozilla/5.0 (Windows NT 10.0; Win64; x64) AppleWebKit/537.36 (KHTML, like Gecko) Chrome/123.0.0.0 Safari/537.36 OPR/109.0.0.0" etag="6myEEl1b4SNO_8bsxLFZ" version="24.4.14" type="github">
  <diagram name="Page-1" id="ooHhTHXXdD68lQWDSb-w">
    <mxGraphModel dx="999" dy="1597" grid="1" gridSize="10" guides="1" tooltips="1" connect="1" arrows="1" fold="1" page="1" pageScale="1" pageWidth="850" pageHeight="1100" math="0" shadow="0">
      <root>
        <mxCell id="0" />
        <mxCell id="1" parent="0" />
        <mxCell id="Opmfp_JNUlfIn7s4RJl--1" value="Adobo" style="ellipse;whiteSpace=wrap;html=1;fillColor=#FFF59C;" vertex="1" parent="1">
          <mxGeometry x="362.58" y="70" width="85" height="40" as="geometry" />
        </mxCell>
        <mxCell id="Opmfp_JNUlfIn7s4RJl--2" value="Filipino" style="ellipse;whiteSpace=wrap;html=1;fillColor=#FFAC82;" vertex="1" parent="1">
          <mxGeometry x="365" width="75" height="40" as="geometry" />
        </mxCell>
        <mxCell id="Opmfp_JNUlfIn7s4RJl--3" value="Chicken" style="ellipse;whiteSpace=wrap;html=1;fillColor=#B5FFEE;" vertex="1" parent="1">
          <mxGeometry x="325" y="160" width="77.5" height="40" as="geometry" />
        </mxCell>
        <mxCell id="Opmfp_JNUlfIn7s4RJl--4" value="Soy Sauce" style="ellipse;whiteSpace=wrap;html=1;fillColor=#B3FFB0;" vertex="1" parent="1">
          <mxGeometry x="542.58" y="160" width="80" height="40" as="geometry" />
        </mxCell>
        <mxCell id="Opmfp_JNUlfIn7s4RJl--5" value="Vinegar" style="ellipse;whiteSpace=wrap;html=1;fillColor=#B3FFB0;" vertex="1" parent="1">
          <mxGeometry x="547.58" y="110" width="75" height="40" as="geometry" />
        </mxCell>
        <mxCell id="Opmfp_JNUlfIn7s4RJl--6" value="Bay Leaves" style="ellipse;whiteSpace=wrap;html=1;fillColor=#B5FFEE;" vertex="1" parent="1">
          <mxGeometry x="467.58" y="35" width="80" height="40" as="geometry" />
        </mxCell>
        <mxCell id="Opmfp_JNUlfIn7s4RJl--7" value="Onion" style="ellipse;whiteSpace=wrap;html=1;fillColor=#B5FFEE;" vertex="1" parent="1">
          <mxGeometry x="260" y="30" width="65" height="40" as="geometry" />
        </mxCell>
        <mxCell id="Opmfp_JNUlfIn7s4RJl--8" value="Garlic" style="ellipse;whiteSpace=wrap;html=1;fillColor=#B5FFEE;" vertex="1" parent="1">
          <mxGeometry x="240" y="80" width="70" height="40" as="geometry" />
        </mxCell>
        <mxCell id="Opmfp_JNUlfIn7s4RJl--9" value="Pepper" style="ellipse;whiteSpace=wrap;html=1;fillColor=#B5FFEE;" vertex="1" parent="1">
          <mxGeometry x="542.58" y="60" width="70" height="40" as="geometry" />
        </mxCell>
        <mxCell id="Opmfp_JNUlfIn7s4RJl--10" value="" style="endArrow=classic;html=1;rounded=0;exitX=0.5;exitY=0;exitDx=0;exitDy=0;entryX=0.5;entryY=1;entryDx=0;entryDy=0;" edge="1" parent="1" source="Opmfp_JNUlfIn7s4RJl--1" target="Opmfp_JNUlfIn7s4RJl--2">
          <mxGeometry width="50" height="50" relative="1" as="geometry">
            <mxPoint x="530" y="50" as="sourcePoint" />
            <mxPoint x="580" as="targetPoint" />
          </mxGeometry>
        </mxCell>
        <mxCell id="Opmfp_JNUlfIn7s4RJl--11" value="" style="endArrow=classic;html=1;rounded=0;exitX=0.5;exitY=0;exitDx=0;exitDy=0;entryX=0.363;entryY=0.973;entryDx=0;entryDy=0;entryPerimeter=0;" edge="1" parent="1" source="Opmfp_JNUlfIn7s4RJl--3" target="Opmfp_JNUlfIn7s4RJl--1">
          <mxGeometry width="50" height="50" relative="1" as="geometry">
            <mxPoint x="433" y="50" as="sourcePoint" />
            <mxPoint x="433" y="90" as="targetPoint" />
          </mxGeometry>
        </mxCell>
        <mxCell id="Opmfp_JNUlfIn7s4RJl--12" value="Condiment" style="ellipse;whiteSpace=wrap;html=1;fillColor=#FFAC82;" vertex="1" parent="1">
          <mxGeometry x="662.58" y="110" width="85" height="40" as="geometry" />
        </mxCell>
        <mxCell id="Opmfp_JNUlfIn7s4RJl--14" value="" style="endArrow=classic;html=1;rounded=0;entryX=1;entryY=0.5;entryDx=0;entryDy=0;exitX=0;exitY=0.5;exitDx=0;exitDy=0;" edge="1" parent="1" source="Opmfp_JNUlfIn7s4RJl--56" target="Opmfp_JNUlfIn7s4RJl--55">
          <mxGeometry width="50" height="50" relative="1" as="geometry">
            <mxPoint x="765.3350000000002" y="240.0000000000001" as="sourcePoint" />
            <mxPoint x="727.58" y="256.6400000000002" as="targetPoint" />
          </mxGeometry>
        </mxCell>
        <mxCell id="Opmfp_JNUlfIn7s4RJl--15" value="" style="endArrow=classic;html=1;rounded=0;entryX=0;entryY=0.5;entryDx=0;entryDy=0;exitX=1;exitY=0.5;exitDx=0;exitDy=0;" edge="1" parent="1" source="Opmfp_JNUlfIn7s4RJl--5" target="Opmfp_JNUlfIn7s4RJl--12">
          <mxGeometry width="50" height="50" relative="1" as="geometry">
            <mxPoint x="672.58" y="140" as="sourcePoint" />
            <mxPoint x="632.58" y="150" as="targetPoint" />
          </mxGeometry>
        </mxCell>
        <mxCell id="Opmfp_JNUlfIn7s4RJl--17" value="" style="endArrow=classic;html=1;rounded=0;entryX=1.013;entryY=0.63;entryDx=0;entryDy=0;entryPerimeter=0;exitX=0;exitY=0.5;exitDx=0;exitDy=0;" edge="1" parent="1" source="Opmfp_JNUlfIn7s4RJl--5" target="Opmfp_JNUlfIn7s4RJl--1">
          <mxGeometry width="50" height="50" relative="1" as="geometry">
            <mxPoint x="450" y="91" as="sourcePoint" />
            <mxPoint x="532.58" y="60" as="targetPoint" />
          </mxGeometry>
        </mxCell>
        <mxCell id="Opmfp_JNUlfIn7s4RJl--18" value="" style="endArrow=classic;html=1;rounded=0;entryX=0.916;entryY=0.773;entryDx=0;entryDy=0;entryPerimeter=0;exitX=0.142;exitY=0.223;exitDx=0;exitDy=0;exitPerimeter=0;" edge="1" parent="1" source="Opmfp_JNUlfIn7s4RJl--4" target="Opmfp_JNUlfIn7s4RJl--1">
          <mxGeometry width="50" height="50" relative="1" as="geometry">
            <mxPoint x="452.58" y="100" as="sourcePoint" />
            <mxPoint x="557.58" y="190" as="targetPoint" />
          </mxGeometry>
        </mxCell>
        <mxCell id="Opmfp_JNUlfIn7s4RJl--20" value="Pork" style="ellipse;whiteSpace=wrap;html=1;fillColor=#B5FFEE;" vertex="1" parent="1">
          <mxGeometry x="440" y="150" width="77.5" height="40" as="geometry" />
        </mxCell>
        <mxCell id="Opmfp_JNUlfIn7s4RJl--21" value="" style="endArrow=classic;html=1;rounded=0;entryX=0.033;entryY=0.731;entryDx=0;entryDy=0;exitX=1;exitY=0.5;exitDx=0;exitDy=0;entryPerimeter=0;" edge="1" parent="1" source="Opmfp_JNUlfIn7s4RJl--8" target="Opmfp_JNUlfIn7s4RJl--1">
          <mxGeometry width="50" height="50" relative="1" as="geometry">
            <mxPoint x="420" y="100" as="sourcePoint" />
            <mxPoint x="459" y="160" as="targetPoint" />
          </mxGeometry>
        </mxCell>
        <mxCell id="Opmfp_JNUlfIn7s4RJl--22" value="" style="endArrow=classic;html=1;rounded=0;exitX=1;exitY=0.5;exitDx=0;exitDy=0;entryX=0.083;entryY=0.272;entryDx=0;entryDy=0;entryPerimeter=0;" edge="1" parent="1" source="Opmfp_JNUlfIn7s4RJl--7" target="Opmfp_JNUlfIn7s4RJl--1">
          <mxGeometry width="50" height="50" relative="1" as="geometry">
            <mxPoint x="430" y="110" as="sourcePoint" />
            <mxPoint x="330" y="70" as="targetPoint" />
          </mxGeometry>
        </mxCell>
        <mxCell id="Opmfp_JNUlfIn7s4RJl--24" value="Seasoning" style="ellipse;whiteSpace=wrap;html=1;fillColor=#FFAC82;" vertex="1" parent="1">
          <mxGeometry x="642.58" y="60" width="85" height="40" as="geometry" />
        </mxCell>
        <mxCell id="Opmfp_JNUlfIn7s4RJl--30" value="" style="endArrow=classic;html=1;rounded=0;exitX=0.019;exitY=0.617;exitDx=0;exitDy=0;entryX=0.99;entryY=0.355;entryDx=0;entryDy=0;entryPerimeter=0;exitPerimeter=0;" edge="1" parent="1" source="Opmfp_JNUlfIn7s4RJl--9" target="Opmfp_JNUlfIn7s4RJl--1">
          <mxGeometry width="50" height="50" relative="1" as="geometry">
            <mxPoint x="452.58" y="100" as="sourcePoint" />
            <mxPoint x="502.5799999999999" y="70" as="targetPoint" />
          </mxGeometry>
        </mxCell>
        <mxCell id="Opmfp_JNUlfIn7s4RJl--32" value="" style="endArrow=classic;html=1;rounded=0;exitX=1;exitY=0.5;exitDx=0;exitDy=0;entryX=0;entryY=0.5;entryDx=0;entryDy=0;" edge="1" parent="1" source="Opmfp_JNUlfIn7s4RJl--9" target="Opmfp_JNUlfIn7s4RJl--24">
          <mxGeometry width="50" height="50" relative="1" as="geometry">
            <mxPoint x="602.58" y="90" as="sourcePoint" />
            <mxPoint x="640" y="80" as="targetPoint" />
          </mxGeometry>
        </mxCell>
        <mxCell id="Opmfp_JNUlfIn7s4RJl--33" value="Stringbeans" style="ellipse;whiteSpace=wrap;html=1;fillColor=#B5FFEE;" vertex="1" parent="1">
          <mxGeometry x="236.25" y="130" width="77.5" height="40" as="geometry" />
        </mxCell>
        <mxCell id="Opmfp_JNUlfIn7s4RJl--38" value="" style="endArrow=classic;html=1;rounded=0;entryX=0;entryY=1;entryDx=0;entryDy=0;" edge="1" parent="1" source="Opmfp_JNUlfIn7s4RJl--33" target="Opmfp_JNUlfIn7s4RJl--1">
          <mxGeometry width="50" height="50" relative="1" as="geometry">
            <mxPoint x="428" y="110" as="sourcePoint" />
            <mxPoint x="379" y="150" as="targetPoint" />
          </mxGeometry>
        </mxCell>
        <mxCell id="Opmfp_JNUlfIn7s4RJl--39" value="Vegetable" style="ellipse;whiteSpace=wrap;html=1;fillColor=#FFAC82;" vertex="1" parent="1">
          <mxGeometry x="130" y="120" width="85" height="40" as="geometry" />
        </mxCell>
        <mxCell id="Opmfp_JNUlfIn7s4RJl--44" value="" style="endArrow=classic;html=1;rounded=0;entryX=1;entryY=0;entryDx=0;entryDy=0;exitX=0;exitY=0.5;exitDx=0;exitDy=0;" edge="1" parent="1" source="Opmfp_JNUlfIn7s4RJl--8" target="Opmfp_JNUlfIn7s4RJl--39">
          <mxGeometry width="50" height="50" relative="1" as="geometry">
            <mxPoint x="140" y="60" as="sourcePoint" />
            <mxPoint x="230" y="85" as="targetPoint" />
          </mxGeometry>
        </mxCell>
        <mxCell id="Opmfp_JNUlfIn7s4RJl--45" value="" style="endArrow=classic;html=1;rounded=0;exitX=0;exitY=0.5;exitDx=0;exitDy=0;entryX=1;entryY=0.5;entryDx=0;entryDy=0;" edge="1" parent="1" source="Opmfp_JNUlfIn7s4RJl--3" target="Opmfp_JNUlfIn7s4RJl--33">
          <mxGeometry width="50" height="50" relative="1" as="geometry">
            <mxPoint x="428" y="110" as="sourcePoint" />
            <mxPoint x="456" y="160" as="targetPoint" />
          </mxGeometry>
        </mxCell>
        <mxCell id="Opmfp_JNUlfIn7s4RJl--46" value="" style="endArrow=classic;html=1;rounded=0;exitX=1;exitY=0.5;exitDx=0;exitDy=0;entryX=0;entryY=0.5;entryDx=0;entryDy=0;" edge="1" parent="1" source="Opmfp_JNUlfIn7s4RJl--33" target="Opmfp_JNUlfIn7s4RJl--3">
          <mxGeometry width="50" height="50" relative="1" as="geometry">
            <mxPoint x="418" y="180" as="sourcePoint" />
            <mxPoint x="410" y="170" as="targetPoint" />
          </mxGeometry>
        </mxCell>
        <mxCell id="Opmfp_JNUlfIn7s4RJl--47" value="" style="endArrow=classic;html=1;rounded=0;entryX=0.962;entryY=0.747;entryDx=0;entryDy=0;exitX=0;exitY=0.5;exitDx=0;exitDy=0;entryPerimeter=0;" edge="1" parent="1" source="Opmfp_JNUlfIn7s4RJl--33" target="Opmfp_JNUlfIn7s4RJl--39">
          <mxGeometry width="50" height="50" relative="1" as="geometry">
            <mxPoint x="190" y="90" as="sourcePoint" />
            <mxPoint x="370" y="155" as="targetPoint" />
          </mxGeometry>
        </mxCell>
        <mxCell id="Opmfp_JNUlfIn7s4RJl--49" value="" style="endArrow=classic;html=1;rounded=0;exitX=0;exitY=0.5;exitDx=0;exitDy=0;entryX=0.774;entryY=0.114;entryDx=0;entryDy=0;entryPerimeter=0;" edge="1" parent="1" source="Opmfp_JNUlfIn7s4RJl--20" target="Opmfp_JNUlfIn7s4RJl--3">
          <mxGeometry width="50" height="50" relative="1" as="geometry">
            <mxPoint x="428" y="110" as="sourcePoint" />
            <mxPoint x="397" y="160" as="targetPoint" />
          </mxGeometry>
        </mxCell>
        <mxCell id="Opmfp_JNUlfIn7s4RJl--50" value="" style="endArrow=classic;html=1;rounded=0;exitX=0.774;exitY=0.13;exitDx=0;exitDy=0;entryX=0;entryY=0.5;entryDx=0;entryDy=0;exitPerimeter=0;" edge="1" parent="1" source="Opmfp_JNUlfIn7s4RJl--3" target="Opmfp_JNUlfIn7s4RJl--20">
          <mxGeometry width="50" height="50" relative="1" as="geometry">
            <mxPoint x="435" y="140" as="sourcePoint" />
            <mxPoint x="418" y="165" as="targetPoint" />
          </mxGeometry>
        </mxCell>
        <mxCell id="Opmfp_JNUlfIn7s4RJl--52" value="" style="endArrow=classic;html=1;rounded=0;exitX=0.296;exitY=0.036;exitDx=0;exitDy=0;entryX=0.64;entryY=0.98;entryDx=0;entryDy=0;entryPerimeter=0;exitPerimeter=0;" edge="1" parent="1" source="Opmfp_JNUlfIn7s4RJl--20" target="Opmfp_JNUlfIn7s4RJl--1">
          <mxGeometry width="50" height="50" relative="1" as="geometry">
            <mxPoint x="440.0049699693464" y="114.20168066341876" as="sourcePoint" />
            <mxPoint x="471.4850000000002" y="146.56000000000017" as="targetPoint" />
          </mxGeometry>
        </mxCell>
        <mxCell id="Opmfp_JNUlfIn7s4RJl--55" value="Soy" style="ellipse;whiteSpace=wrap;html=1;fillColor=#B5FFEE;" vertex="1" parent="1">
          <mxGeometry x="670.08" y="160" width="77.5" height="40" as="geometry" />
        </mxCell>
        <mxCell id="Opmfp_JNUlfIn7s4RJl--56" value="Allergen" style="ellipse;whiteSpace=wrap;html=1;fillColor=#FFAC82;" vertex="1" parent="1">
          <mxGeometry x="770" y="140" width="77.5" height="40" as="geometry" />
        </mxCell>
        <mxCell id="Opmfp_JNUlfIn7s4RJl--58" value="" style="endArrow=classic;html=1;rounded=0;exitX=1;exitY=1;exitDx=0;exitDy=0;" edge="1" parent="1" source="Opmfp_JNUlfIn7s4RJl--4" target="Opmfp_JNUlfIn7s4RJl--55">
          <mxGeometry width="50" height="50" relative="1" as="geometry">
            <mxPoint x="672.58" y="175" as="sourcePoint" />
            <mxPoint x="632.58" y="140" as="targetPoint" />
          </mxGeometry>
        </mxCell>
        <mxCell id="Opmfp_JNUlfIn7s4RJl--59" value="Salty" style="ellipse;whiteSpace=wrap;html=1;fillColor=#C9C9C9;" vertex="1" parent="1">
          <mxGeometry x="611.33" y="220" width="77.5" height="40" as="geometry" />
        </mxCell>
        <mxCell id="Opmfp_JNUlfIn7s4RJl--61" value="" style="endArrow=classic;html=1;rounded=0;exitX=0.5;exitY=1;exitDx=0;exitDy=0;entryX=0.5;entryY=0;entryDx=0;entryDy=0;" edge="1" parent="1" target="Opmfp_JNUlfIn7s4RJl--59">
          <mxGeometry width="50" height="50" relative="1" as="geometry">
            <mxPoint x="571.3300000000003" y="200" as="sourcePoint" />
            <mxPoint x="645.83" y="218" as="targetPoint" />
          </mxGeometry>
        </mxCell>
        <mxCell id="Opmfp_JNUlfIn7s4RJl--62" value="" style="endArrow=classic;html=1;rounded=0;exitX=0.939;exitY=0.223;exitDx=0;exitDy=0;entryX=0;entryY=0.5;entryDx=0;entryDy=0;exitPerimeter=0;" edge="1" parent="1" source="Opmfp_JNUlfIn7s4RJl--4" target="Opmfp_JNUlfIn7s4RJl--12">
          <mxGeometry width="50" height="50" relative="1" as="geometry">
            <mxPoint x="672.58" y="140" as="sourcePoint" />
            <mxPoint x="632.58" y="140" as="targetPoint" />
          </mxGeometry>
        </mxCell>
        <mxCell id="Opmfp_JNUlfIn7s4RJl--63" value="53cal" style="ellipse;whiteSpace=wrap;html=1;fillColor=#C9C9C9;" vertex="1" parent="1">
          <mxGeometry x="525.08" y="220" width="77.5" height="40" as="geometry" />
        </mxCell>
        <mxCell id="Opmfp_JNUlfIn7s4RJl--64" value="" style="endArrow=classic;html=1;rounded=0;exitX=0;exitY=1;exitDx=0;exitDy=0;entryX=0.641;entryY=0.062;entryDx=0;entryDy=0;entryPerimeter=0;" edge="1" parent="1" source="Opmfp_JNUlfIn7s4RJl--4" target="Opmfp_JNUlfIn7s4RJl--65">
          <mxGeometry width="50" height="50" relative="1" as="geometry">
            <mxPoint x="595.58" y="210" as="sourcePoint" />
            <mxPoint x="673.58" y="230" as="targetPoint" />
          </mxGeometry>
        </mxCell>
        <mxCell id="Opmfp_JNUlfIn7s4RJl--65" value="2/3 cup" style="ellipse;whiteSpace=wrap;html=1;fillColor=#C9C9C9;" vertex="1" parent="1">
          <mxGeometry x="447.58" y="200" width="77.5" height="40" as="geometry" />
        </mxCell>
        <mxCell id="Opmfp_JNUlfIn7s4RJl--67" value="" style="endArrow=classic;html=1;rounded=0;exitX=0.5;exitY=1;exitDx=0;exitDy=0;entryX=0.5;entryY=0;entryDx=0;entryDy=0;" edge="1" parent="1" target="Opmfp_JNUlfIn7s4RJl--63">
          <mxGeometry width="50" height="50" relative="1" as="geometry">
            <mxPoint x="571.3300000000003" y="200" as="sourcePoint" />
            <mxPoint x="506.8299999999999" y="212" as="targetPoint" />
          </mxGeometry>
        </mxCell>
        <mxCell id="Opmfp_JNUlfIn7s4RJl--68" value="Fried" style="ellipse;whiteSpace=wrap;html=1;fillColor=#FFAC82;" vertex="1" parent="1">
          <mxGeometry x="247.5" y="200" width="77.5" height="40" as="geometry" />
        </mxCell>
        <mxCell id="Opmfp_JNUlfIn7s4RJl--69" value="" style="endArrow=classic;html=1;rounded=0;exitX=0;exitY=1;exitDx=0;exitDy=0;" edge="1" parent="1" source="Opmfp_JNUlfIn7s4RJl--3" target="Opmfp_JNUlfIn7s4RJl--68">
          <mxGeometry width="50" height="50" relative="1" as="geometry">
            <mxPoint x="418" y="165" as="sourcePoint" />
            <mxPoint x="450" y="155" as="targetPoint" />
          </mxGeometry>
        </mxCell>
        <mxCell id="Opmfp_JNUlfIn7s4RJl--70" value="Cooking Method" style="ellipse;whiteSpace=wrap;html=1;fillColor=#FF8985;" vertex="1" parent="1">
          <mxGeometry x="150" y="170" width="77.5" height="40" as="geometry" />
        </mxCell>
        <mxCell id="Opmfp_JNUlfIn7s4RJl--71" value="Prep Method" style="ellipse;whiteSpace=wrap;html=1;fillColor=#FF8985;" vertex="1" parent="1">
          <mxGeometry x="130" y="70" width="77.5" height="40" as="geometry" />
        </mxCell>
        <mxCell id="Opmfp_JNUlfIn7s4RJl--72" value="Sliced" style="ellipse;whiteSpace=wrap;html=1;fillColor=#FFAC82;" vertex="1" parent="1">
          <mxGeometry x="170" y="10" width="77.5" height="40" as="geometry" />
        </mxCell>
        <mxCell id="Opmfp_JNUlfIn7s4RJl--73" value="" style="endArrow=classic;html=1;rounded=0;entryX=1;entryY=0;entryDx=0;entryDy=0;exitX=0;exitY=1;exitDx=0;exitDy=0;" edge="1" parent="1" source="Opmfp_JNUlfIn7s4RJl--72" target="Opmfp_JNUlfIn7s4RJl--71">
          <mxGeometry width="50" height="50" relative="1" as="geometry">
            <mxPoint x="209" y="134" as="sourcePoint" />
            <mxPoint x="250" y="110" as="targetPoint" />
          </mxGeometry>
        </mxCell>
        <mxCell id="Opmfp_JNUlfIn7s4RJl--74" value="" style="endArrow=classic;html=1;rounded=0;entryX=1;entryY=0.5;entryDx=0;entryDy=0;exitX=0;exitY=0.5;exitDx=0;exitDy=0;" edge="1" parent="1" source="Opmfp_JNUlfIn7s4RJl--7" target="Opmfp_JNUlfIn7s4RJl--72">
          <mxGeometry width="50" height="50" relative="1" as="geometry">
            <mxPoint x="183" y="70" as="sourcePoint" />
            <mxPoint x="219" y="60" as="targetPoint" />
          </mxGeometry>
        </mxCell>
        <mxCell id="Opmfp_JNUlfIn7s4RJl--75" value="" style="endArrow=classic;html=1;rounded=0;exitX=0.001;exitY=0.623;exitDx=0;exitDy=0;entryX=1;entryY=0;entryDx=0;entryDy=0;exitPerimeter=0;" edge="1" parent="1" source="Opmfp_JNUlfIn7s4RJl--6" target="Opmfp_JNUlfIn7s4RJl--1">
          <mxGeometry width="50" height="50" relative="1" as="geometry">
            <mxPoint x="440.0049699693464" y="85.79831933658147" as="sourcePoint" />
            <mxPoint x="464.29572875254513" y="64.14213562372743" as="targetPoint" />
          </mxGeometry>
        </mxCell>
        <mxCell id="Opmfp_JNUlfIn7s4RJl--79" style="edgeStyle=orthogonalEdgeStyle;rounded=0;orthogonalLoop=1;jettySize=auto;html=1;exitX=1;exitY=0;exitDx=0;exitDy=0;entryX=0;entryY=0.5;entryDx=0;entryDy=0;" edge="1" parent="1" source="Opmfp_JNUlfIn7s4RJl--6" target="Opmfp_JNUlfIn7s4RJl--78">
          <mxGeometry relative="1" as="geometry" />
        </mxCell>
        <mxCell id="Opmfp_JNUlfIn7s4RJl--78" value="Herb" style="ellipse;whiteSpace=wrap;html=1;fillColor=#FFAC82;" vertex="1" parent="1">
          <mxGeometry x="590" y="20" width="85" height="40" as="geometry" />
        </mxCell>
        <mxCell id="Opmfp_JNUlfIn7s4RJl--80" value="" style="endArrow=classic;html=1;rounded=0;exitX=0.007;exitY=0.331;exitDx=0;exitDy=0;entryX=0.5;entryY=1;entryDx=0;entryDy=0;exitPerimeter=0;" edge="1" parent="1" source="Opmfp_JNUlfIn7s4RJl--68" target="Opmfp_JNUlfIn7s4RJl--70">
          <mxGeometry width="50" height="50" relative="1" as="geometry">
            <mxPoint x="346" y="204" as="sourcePoint" />
            <mxPoint x="324" y="216" as="targetPoint" />
          </mxGeometry>
        </mxCell>
        <mxCell id="Opmfp_JNUlfIn7s4RJl--81" value="" style="endArrow=classic;html=1;rounded=0;exitX=0.5;exitY=1;exitDx=0;exitDy=0;" edge="1" parent="1" source="Opmfp_JNUlfIn7s4RJl--82" target="Opmfp_JNUlfIn7s4RJl--56">
          <mxGeometry width="50" height="50" relative="1" as="geometry">
            <mxPoint x="758" y="180" as="sourcePoint" />
            <mxPoint x="734" y="190" as="targetPoint" />
          </mxGeometry>
        </mxCell>
        <mxCell id="Opmfp_JNUlfIn7s4RJl--82" value="Dietary Restriction" style="ellipse;whiteSpace=wrap;html=1;fillColor=#FF8985;" vertex="1" parent="1">
          <mxGeometry x="747.58" y="70" width="77.5" height="40" as="geometry" />
        </mxCell>
        <mxCell id="Opmfp_JNUlfIn7s4RJl--83" value="Flavor" style="ellipse;whiteSpace=wrap;html=1;fillColor=#FF8985;" vertex="1" parent="1">
          <mxGeometry x="720" y="200" width="77.5" height="40" as="geometry" />
        </mxCell>
        <mxCell id="Opmfp_JNUlfIn7s4RJl--84" value="" style="endArrow=classic;html=1;rounded=0;entryX=0.027;entryY=0.589;entryDx=0;entryDy=0;entryPerimeter=0;" edge="1" parent="1" target="Opmfp_JNUlfIn7s4RJl--83">
          <mxGeometry width="50" height="50" relative="1" as="geometry">
            <mxPoint x="690" y="234" as="sourcePoint" />
            <mxPoint x="734" y="190" as="targetPoint" />
          </mxGeometry>
        </mxCell>
        <mxCell id="Opmfp_JNUlfIn7s4RJl--85" value="" style="endArrow=classic;html=1;rounded=0;entryX=0.705;entryY=0.045;entryDx=0;entryDy=0;entryPerimeter=0;exitX=0;exitY=0.5;exitDx=0;exitDy=0;" edge="1" parent="1" source="Opmfp_JNUlfIn7s4RJl--7" target="Opmfp_JNUlfIn7s4RJl--39">
          <mxGeometry width="50" height="50" relative="1" as="geometry">
            <mxPoint x="209" y="134" as="sourcePoint" />
            <mxPoint x="250" y="110" as="targetPoint" />
          </mxGeometry>
        </mxCell>
        <mxCell id="Opmfp_JNUlfIn7s4RJl--86" value="Knowledge Graph Example" style="text;html=1;align=center;verticalAlign=middle;whiteSpace=wrap;rounded=0;fontStyle=1" vertex="1" parent="1">
          <mxGeometry x="461.33" y="-50" width="205" height="50" as="geometry" />
        </mxCell>
      </root>
    </mxGraphModel>
  </diagram>
</mxfile>
